<svg width="24" height="24" viewBox="0 0 24 24" fill="none" xmlns="http://www.w3.org/2000/svg">
<g clip-path="url(#clip0_67_17)">
<path d="M24.0001 12.074C24.0001 5.40499 18.6271 -0.00100708 12.0001 -0.00100708C5.37007 0.00049292 -0.00292969 5.40499 -0.00292969 12.0755C-0.00292969 18.101 4.38607 23.096 10.1221 24.002V15.5645H7.07707V12.0755H10.1251V9.41299C10.1251 6.38749 11.9176 4.71649 14.6581 4.71649C15.9721 4.71649 17.3446 4.95199 17.3446 4.95199V7.92199H15.8311C14.3416 7.92199 13.8766 8.85349 13.8766 9.80899V12.074H17.2036L16.6726 15.563H13.8751V24.0005C19.6111 23.0945 24.0001 18.0995 24.0001 12.074Z" fill="#282C37"/>
</g>
<defs>
<clipPath id="clip0_67_17">
<rect width="24" height="24" fill="white"/>
</clipPath>
</defs>
</svg>
